<mxfile host="app.diagrams.net" modified="2022-06-03T01:07:12.540Z" agent="5.0 (Windows NT 10.0; Win64; x64) AppleWebKit/537.36 (KHTML, like Gecko) Chrome/102.0.5005.63 Safari/537.36 Edg/102.0.1245.30" etag="TXPv6Sl1cHJFulD9GTO4" version="18.1.2" type="github">
  <diagram id="R2lEEEUBdFMjLlhIrx00" name="Page-1">
    <mxGraphModel dx="1422" dy="762" grid="0" gridSize="10" guides="1" tooltips="1" connect="1" arrows="1" fold="1" page="1" pageScale="1" pageWidth="850" pageHeight="1100" background="#B3B3B3" math="0" shadow="0" extFonts="Permanent Marker^https://fonts.googleapis.com/css?family=Permanent+Marker">
      <root>
        <mxCell id="0" />
        <mxCell id="1" parent="0" />
        <mxCell id="nJMHSFHrPQ5Lqql-Y0jn-1" value="Vagas" style="shape=table;startSize=30;container=1;collapsible=1;childLayout=tableLayout;fixedRows=1;rowLines=0;fontStyle=1;align=center;resizeLast=1;strokeWidth=2;rounded=0;fillColor=#0050ef;strokeColor=#001DBC;fontColor=#ffffff;gradientColor=none;swimlaneFillColor=none;" vertex="1" parent="1">
          <mxGeometry x="620" y="330" width="180" height="120" as="geometry" />
        </mxCell>
        <mxCell id="nJMHSFHrPQ5Lqql-Y0jn-2" value="" style="shape=tableRow;horizontal=0;startSize=0;swimlaneHead=0;swimlaneBody=0;fillColor=#ffe6cc;collapsible=0;dropTarget=0;points=[[0,0.5],[1,0.5]];portConstraint=eastwest;top=0;left=0;right=0;bottom=1;strokeWidth=2;rounded=0;strokeColor=#d79b00;" vertex="1" parent="nJMHSFHrPQ5Lqql-Y0jn-1">
          <mxGeometry y="30" width="180" height="30" as="geometry" />
        </mxCell>
        <mxCell id="nJMHSFHrPQ5Lqql-Y0jn-3" value="PK" style="shape=partialRectangle;connectable=0;fillColor=#f0a30a;top=0;left=0;bottom=0;right=0;fontStyle=1;overflow=hidden;strokeWidth=2;rounded=0;strokeColor=#BD7000;swimlaneLine=1;fontColor=#000000;" vertex="1" parent="nJMHSFHrPQ5Lqql-Y0jn-2">
          <mxGeometry width="30" height="30" as="geometry">
            <mxRectangle width="30" height="30" as="alternateBounds" />
          </mxGeometry>
        </mxCell>
        <mxCell id="nJMHSFHrPQ5Lqql-Y0jn-4" value="IdVaga" style="shape=partialRectangle;connectable=0;fillColor=#ffe6cc;top=0;left=0;bottom=0;right=0;align=left;spacingLeft=6;fontStyle=5;overflow=hidden;strokeWidth=2;rounded=0;strokeColor=#d79b00;" vertex="1" parent="nJMHSFHrPQ5Lqql-Y0jn-2">
          <mxGeometry x="30" width="150" height="30" as="geometry">
            <mxRectangle width="150" height="30" as="alternateBounds" />
          </mxGeometry>
        </mxCell>
        <mxCell id="nJMHSFHrPQ5Lqql-Y0jn-5" value="" style="shape=tableRow;horizontal=0;startSize=0;swimlaneHead=0;swimlaneBody=0;fillColor=#ffe6cc;collapsible=0;dropTarget=0;points=[[0,0.5],[1,0.5]];portConstraint=eastwest;top=0;left=0;right=0;bottom=0;strokeWidth=2;rounded=0;strokeColor=#d79b00;" vertex="1" parent="nJMHSFHrPQ5Lqql-Y0jn-1">
          <mxGeometry y="60" width="180" height="30" as="geometry" />
        </mxCell>
        <mxCell id="nJMHSFHrPQ5Lqql-Y0jn-6" value="" style="shape=partialRectangle;connectable=0;fillColor=#ffe6cc;top=0;left=0;bottom=0;right=0;editable=1;overflow=hidden;strokeWidth=2;rounded=0;strokeColor=#d79b00;swimlaneLine=1;" vertex="1" parent="nJMHSFHrPQ5Lqql-Y0jn-5">
          <mxGeometry width="30" height="30" as="geometry">
            <mxRectangle width="30" height="30" as="alternateBounds" />
          </mxGeometry>
        </mxCell>
        <mxCell id="nJMHSFHrPQ5Lqql-Y0jn-7" value="Estado" style="shape=partialRectangle;connectable=0;fillColor=#ffe6cc;top=0;left=0;bottom=0;right=0;align=left;spacingLeft=6;overflow=hidden;strokeWidth=2;rounded=0;strokeColor=#d79b00;" vertex="1" parent="nJMHSFHrPQ5Lqql-Y0jn-5">
          <mxGeometry x="30" width="150" height="30" as="geometry">
            <mxRectangle width="150" height="30" as="alternateBounds" />
          </mxGeometry>
        </mxCell>
        <mxCell id="nJMHSFHrPQ5Lqql-Y0jn-8" value="" style="shape=tableRow;horizontal=0;startSize=0;swimlaneHead=0;swimlaneBody=0;fillColor=#ffe6cc;collapsible=0;dropTarget=0;points=[[0,0.5],[1,0.5]];portConstraint=eastwest;top=0;left=0;right=0;bottom=0;strokeWidth=2;rounded=0;strokeColor=#d79b00;" vertex="1" parent="nJMHSFHrPQ5Lqql-Y0jn-1">
          <mxGeometry y="90" width="180" height="30" as="geometry" />
        </mxCell>
        <mxCell id="nJMHSFHrPQ5Lqql-Y0jn-9" value="" style="shape=partialRectangle;connectable=0;fillColor=#ffe6cc;top=0;left=0;bottom=0;right=0;editable=1;overflow=hidden;strokeWidth=2;rounded=0;strokeColor=#d79b00;swimlaneLine=1;" vertex="1" parent="nJMHSFHrPQ5Lqql-Y0jn-8">
          <mxGeometry width="30" height="30" as="geometry">
            <mxRectangle width="30" height="30" as="alternateBounds" />
          </mxGeometry>
        </mxCell>
        <mxCell id="nJMHSFHrPQ5Lqql-Y0jn-10" value="Especial" style="shape=partialRectangle;connectable=0;fillColor=#ffe6cc;top=0;left=0;bottom=0;right=0;align=left;spacingLeft=6;overflow=hidden;strokeWidth=2;rounded=0;strokeColor=#d79b00;" vertex="1" parent="nJMHSFHrPQ5Lqql-Y0jn-8">
          <mxGeometry x="30" width="150" height="30" as="geometry">
            <mxRectangle width="150" height="30" as="alternateBounds" />
          </mxGeometry>
        </mxCell>
        <mxCell id="nJMHSFHrPQ5Lqql-Y0jn-14" value="Carro" style="shape=table;startSize=30;container=1;collapsible=1;childLayout=tableLayout;fixedRows=1;rowLines=0;fontStyle=1;align=center;resizeLast=1;strokeWidth=2;rounded=0;fillColor=#0050ef;strokeColor=#001DBC;swimlaneLine=1;fontColor=#ffffff;gradientColor=none;swimlaneFillColor=none;" vertex="1" parent="1">
          <mxGeometry x="50" y="330" width="180" height="120" as="geometry" />
        </mxCell>
        <mxCell id="nJMHSFHrPQ5Lqql-Y0jn-15" value="" style="shape=tableRow;horizontal=0;startSize=0;swimlaneHead=0;swimlaneBody=0;fillColor=#ffe6cc;collapsible=0;dropTarget=0;points=[[0,0.5],[1,0.5]];portConstraint=eastwest;top=0;left=0;right=0;bottom=1;strokeWidth=2;rounded=0;strokeColor=#d79b00;swimlaneLine=1;" vertex="1" parent="nJMHSFHrPQ5Lqql-Y0jn-14">
          <mxGeometry y="30" width="180" height="30" as="geometry" />
        </mxCell>
        <mxCell id="nJMHSFHrPQ5Lqql-Y0jn-16" value="PK" style="shape=partialRectangle;connectable=0;fillColor=#f0a30a;top=0;left=0;bottom=0;right=0;fontStyle=1;overflow=hidden;strokeWidth=2;rounded=0;strokeColor=#BD7000;swimlaneLine=1;fontColor=#000000;" vertex="1" parent="nJMHSFHrPQ5Lqql-Y0jn-15">
          <mxGeometry width="30" height="30" as="geometry">
            <mxRectangle width="30" height="30" as="alternateBounds" />
          </mxGeometry>
        </mxCell>
        <mxCell id="nJMHSFHrPQ5Lqql-Y0jn-17" value="Placa" style="shape=partialRectangle;connectable=0;fillColor=#ffe6cc;top=0;left=0;bottom=0;right=0;align=left;spacingLeft=6;fontStyle=5;overflow=hidden;strokeWidth=2;rounded=0;strokeColor=#d79b00;swimlaneLine=1;gradientColor=none;" vertex="1" parent="nJMHSFHrPQ5Lqql-Y0jn-15">
          <mxGeometry x="30" width="150" height="30" as="geometry">
            <mxRectangle width="150" height="30" as="alternateBounds" />
          </mxGeometry>
        </mxCell>
        <mxCell id="nJMHSFHrPQ5Lqql-Y0jn-18" value="" style="shape=tableRow;horizontal=0;startSize=0;swimlaneHead=0;swimlaneBody=0;fillColor=#ffe6cc;collapsible=0;dropTarget=0;points=[[0,0.5],[1,0.5]];portConstraint=eastwest;top=0;left=0;right=0;bottom=0;strokeWidth=2;rounded=0;strokeColor=#d79b00;swimlaneLine=1;" vertex="1" parent="nJMHSFHrPQ5Lqql-Y0jn-14">
          <mxGeometry y="60" width="180" height="30" as="geometry" />
        </mxCell>
        <mxCell id="nJMHSFHrPQ5Lqql-Y0jn-19" value="" style="shape=partialRectangle;connectable=0;fillColor=#ffe6cc;top=0;left=0;bottom=0;right=0;editable=1;overflow=hidden;strokeWidth=2;rounded=0;strokeColor=#d79b00;swimlaneLine=1;" vertex="1" parent="nJMHSFHrPQ5Lqql-Y0jn-18">
          <mxGeometry width="30" height="30" as="geometry">
            <mxRectangle width="30" height="30" as="alternateBounds" />
          </mxGeometry>
        </mxCell>
        <mxCell id="nJMHSFHrPQ5Lqql-Y0jn-20" value="modelo" style="shape=partialRectangle;connectable=0;fillColor=#ffe6cc;top=0;left=0;bottom=0;right=0;align=left;spacingLeft=6;overflow=hidden;strokeWidth=2;rounded=0;strokeColor=#d79b00;swimlaneLine=1;" vertex="1" parent="nJMHSFHrPQ5Lqql-Y0jn-18">
          <mxGeometry x="30" width="150" height="30" as="geometry">
            <mxRectangle width="150" height="30" as="alternateBounds" />
          </mxGeometry>
        </mxCell>
        <mxCell id="nJMHSFHrPQ5Lqql-Y0jn-21" value="" style="shape=tableRow;horizontal=0;startSize=0;swimlaneHead=0;swimlaneBody=0;fillColor=#ffe6cc;collapsible=0;dropTarget=0;points=[[0,0.5],[1,0.5]];portConstraint=eastwest;top=0;left=0;right=0;bottom=0;strokeWidth=2;rounded=0;strokeColor=#d79b00;swimlaneLine=1;" vertex="1" parent="nJMHSFHrPQ5Lqql-Y0jn-14">
          <mxGeometry y="90" width="180" height="30" as="geometry" />
        </mxCell>
        <mxCell id="nJMHSFHrPQ5Lqql-Y0jn-22" value="" style="shape=partialRectangle;connectable=0;fillColor=#ffe6cc;top=0;left=0;bottom=0;right=0;editable=1;overflow=hidden;strokeWidth=2;rounded=0;strokeColor=#d79b00;swimlaneLine=1;" vertex="1" parent="nJMHSFHrPQ5Lqql-Y0jn-21">
          <mxGeometry width="30" height="30" as="geometry">
            <mxRectangle width="30" height="30" as="alternateBounds" />
          </mxGeometry>
        </mxCell>
        <mxCell id="nJMHSFHrPQ5Lqql-Y0jn-23" value="cor" style="shape=partialRectangle;connectable=0;fillColor=#ffe6cc;top=0;left=0;bottom=0;right=0;align=left;spacingLeft=6;overflow=hidden;strokeWidth=2;rounded=0;strokeColor=#d79b00;swimlaneLine=1;" vertex="1" parent="nJMHSFHrPQ5Lqql-Y0jn-21">
          <mxGeometry x="30" width="150" height="30" as="geometry">
            <mxRectangle width="150" height="30" as="alternateBounds" />
          </mxGeometry>
        </mxCell>
        <mxCell id="nJMHSFHrPQ5Lqql-Y0jn-27" value="Ticket" style="shape=table;startSize=30;container=1;collapsible=1;childLayout=tableLayout;fixedRows=1;rowLines=0;fontStyle=1;align=center;resizeLast=1;strokeWidth=2;rounded=0;fillColor=#0050ef;strokeColor=#001DBC;swimlaneLine=1;fontColor=#ffffff;gradientColor=none;swimlaneFillColor=none;" vertex="1" parent="1">
          <mxGeometry x="335" y="320" width="180" height="210" as="geometry" />
        </mxCell>
        <mxCell id="nJMHSFHrPQ5Lqql-Y0jn-28" value="" style="shape=tableRow;horizontal=0;startSize=0;swimlaneHead=0;swimlaneBody=0;fillColor=#ffe6cc;collapsible=0;dropTarget=0;points=[[0,0.5],[1,0.5]];portConstraint=eastwest;top=0;left=0;right=0;bottom=1;strokeWidth=2;rounded=0;strokeColor=#d79b00;swimlaneLine=1;" vertex="1" parent="nJMHSFHrPQ5Lqql-Y0jn-27">
          <mxGeometry y="30" width="180" height="30" as="geometry" />
        </mxCell>
        <mxCell id="nJMHSFHrPQ5Lqql-Y0jn-29" value="PK" style="shape=partialRectangle;connectable=0;fillColor=#f0a30a;top=0;left=0;bottom=0;right=0;fontStyle=1;overflow=hidden;strokeWidth=2;rounded=0;strokeColor=#BD7000;swimlaneLine=1;fontColor=#000000;" vertex="1" parent="nJMHSFHrPQ5Lqql-Y0jn-28">
          <mxGeometry width="30" height="30" as="geometry">
            <mxRectangle width="30" height="30" as="alternateBounds" />
          </mxGeometry>
        </mxCell>
        <mxCell id="nJMHSFHrPQ5Lqql-Y0jn-30" value="IdTicket" style="shape=partialRectangle;connectable=0;fillColor=#ffe6cc;top=0;left=0;bottom=0;right=0;align=left;spacingLeft=6;fontStyle=5;overflow=hidden;strokeWidth=2;rounded=0;strokeColor=#d79b00;swimlaneLine=1;" vertex="1" parent="nJMHSFHrPQ5Lqql-Y0jn-28">
          <mxGeometry x="30" width="150" height="30" as="geometry">
            <mxRectangle width="150" height="30" as="alternateBounds" />
          </mxGeometry>
        </mxCell>
        <mxCell id="nJMHSFHrPQ5Lqql-Y0jn-31" value="" style="shape=tableRow;horizontal=0;startSize=0;swimlaneHead=0;swimlaneBody=0;fillColor=#ffe6cc;collapsible=0;dropTarget=0;points=[[0,0.5],[1,0.5]];portConstraint=eastwest;top=0;left=0;right=0;bottom=0;strokeWidth=2;rounded=0;strokeColor=#d79b00;swimlaneLine=1;" vertex="1" parent="nJMHSFHrPQ5Lqql-Y0jn-27">
          <mxGeometry y="60" width="180" height="30" as="geometry" />
        </mxCell>
        <mxCell id="nJMHSFHrPQ5Lqql-Y0jn-32" value="" style="shape=partialRectangle;connectable=0;fillColor=#ffe6cc;top=0;left=0;bottom=0;right=0;editable=1;overflow=hidden;strokeWidth=2;rounded=0;strokeColor=#d79b00;swimlaneLine=1;" vertex="1" parent="nJMHSFHrPQ5Lqql-Y0jn-31">
          <mxGeometry width="30" height="30" as="geometry">
            <mxRectangle width="30" height="30" as="alternateBounds" />
          </mxGeometry>
        </mxCell>
        <mxCell id="nJMHSFHrPQ5Lqql-Y0jn-33" value="Valor " style="shape=partialRectangle;connectable=0;fillColor=#ffe6cc;top=0;left=0;bottom=0;right=0;align=left;spacingLeft=6;overflow=hidden;strokeWidth=2;rounded=0;strokeColor=#d79b00;swimlaneLine=1;" vertex="1" parent="nJMHSFHrPQ5Lqql-Y0jn-31">
          <mxGeometry x="30" width="150" height="30" as="geometry">
            <mxRectangle width="150" height="30" as="alternateBounds" />
          </mxGeometry>
        </mxCell>
        <mxCell id="nJMHSFHrPQ5Lqql-Y0jn-34" value="" style="shape=tableRow;horizontal=0;startSize=0;swimlaneHead=0;swimlaneBody=0;fillColor=#ffe6cc;collapsible=0;dropTarget=0;points=[[0,0.5],[1,0.5]];portConstraint=eastwest;top=0;left=0;right=0;bottom=0;strokeWidth=2;rounded=0;strokeColor=#d79b00;swimlaneLine=1;" vertex="1" parent="nJMHSFHrPQ5Lqql-Y0jn-27">
          <mxGeometry y="90" width="180" height="30" as="geometry" />
        </mxCell>
        <mxCell id="nJMHSFHrPQ5Lqql-Y0jn-35" value="" style="shape=partialRectangle;connectable=0;fillColor=#ffe6cc;top=0;left=0;bottom=0;right=0;editable=1;overflow=hidden;strokeWidth=2;rounded=0;strokeColor=#d79b00;swimlaneLine=1;" vertex="1" parent="nJMHSFHrPQ5Lqql-Y0jn-34">
          <mxGeometry width="30" height="30" as="geometry">
            <mxRectangle width="30" height="30" as="alternateBounds" />
          </mxGeometry>
        </mxCell>
        <mxCell id="nJMHSFHrPQ5Lqql-Y0jn-36" value="HR_Entrada" style="shape=partialRectangle;connectable=0;fillColor=#ffe6cc;top=0;left=0;bottom=0;right=0;align=left;spacingLeft=6;overflow=hidden;strokeWidth=2;rounded=0;strokeColor=#d79b00;swimlaneLine=1;" vertex="1" parent="nJMHSFHrPQ5Lqql-Y0jn-34">
          <mxGeometry x="30" width="150" height="30" as="geometry">
            <mxRectangle width="150" height="30" as="alternateBounds" />
          </mxGeometry>
        </mxCell>
        <mxCell id="nJMHSFHrPQ5Lqql-Y0jn-37" value="" style="shape=tableRow;horizontal=0;startSize=0;swimlaneHead=0;swimlaneBody=0;fillColor=#ffe6cc;collapsible=0;dropTarget=0;points=[[0,0.5],[1,0.5]];portConstraint=eastwest;top=0;left=0;right=0;bottom=0;strokeWidth=2;rounded=0;strokeColor=#d79b00;swimlaneLine=1;swimlaneFillColor=none;" vertex="1" parent="nJMHSFHrPQ5Lqql-Y0jn-27">
          <mxGeometry y="120" width="180" height="30" as="geometry" />
        </mxCell>
        <mxCell id="nJMHSFHrPQ5Lqql-Y0jn-38" value="" style="shape=partialRectangle;connectable=0;fillColor=#ffe6cc;top=0;left=0;bottom=0;right=0;editable=1;overflow=hidden;strokeWidth=2;rounded=0;strokeColor=#d79b00;swimlaneLine=1;" vertex="1" parent="nJMHSFHrPQ5Lqql-Y0jn-37">
          <mxGeometry width="30" height="30" as="geometry">
            <mxRectangle width="30" height="30" as="alternateBounds" />
          </mxGeometry>
        </mxCell>
        <mxCell id="nJMHSFHrPQ5Lqql-Y0jn-39" value="HR_Saida" style="shape=partialRectangle;connectable=0;fillColor=#ffe6cc;top=0;left=0;bottom=0;right=0;align=left;spacingLeft=6;overflow=hidden;strokeWidth=2;rounded=0;strokeColor=#d79b00;swimlaneLine=1;" vertex="1" parent="nJMHSFHrPQ5Lqql-Y0jn-37">
          <mxGeometry x="30" width="150" height="30" as="geometry">
            <mxRectangle width="150" height="30" as="alternateBounds" />
          </mxGeometry>
        </mxCell>
        <mxCell id="nJMHSFHrPQ5Lqql-Y0jn-40" style="shape=tableRow;horizontal=0;startSize=0;swimlaneHead=0;swimlaneBody=0;fillColor=#ffe6cc;collapsible=0;dropTarget=0;points=[[0,0.5],[1,0.5]];portConstraint=eastwest;top=0;left=0;right=0;bottom=0;strokeWidth=2;rounded=0;strokeColor=#d79b00;swimlaneLine=1;" vertex="1" parent="nJMHSFHrPQ5Lqql-Y0jn-27">
          <mxGeometry y="150" width="180" height="30" as="geometry" />
        </mxCell>
        <mxCell id="nJMHSFHrPQ5Lqql-Y0jn-41" value="FK" style="shape=partialRectangle;connectable=0;top=0;left=0;bottom=0;right=0;editable=1;overflow=hidden;strokeWidth=2;rounded=0;swimlaneLine=1;fillColor=#008a00;fontColor=#ffffff;strokeColor=#005700;" vertex="1" parent="nJMHSFHrPQ5Lqql-Y0jn-40">
          <mxGeometry width="30" height="30" as="geometry">
            <mxRectangle width="30" height="30" as="alternateBounds" />
          </mxGeometry>
        </mxCell>
        <mxCell id="nJMHSFHrPQ5Lqql-Y0jn-42" value="Placa" style="shape=partialRectangle;connectable=0;fillColor=#ffe6cc;top=0;left=0;bottom=0;right=0;align=left;spacingLeft=6;overflow=hidden;strokeWidth=2;rounded=0;strokeColor=#d79b00;swimlaneLine=1;" vertex="1" parent="nJMHSFHrPQ5Lqql-Y0jn-40">
          <mxGeometry x="30" width="150" height="30" as="geometry">
            <mxRectangle width="150" height="30" as="alternateBounds" />
          </mxGeometry>
        </mxCell>
        <mxCell id="nJMHSFHrPQ5Lqql-Y0jn-43" style="shape=tableRow;horizontal=0;startSize=0;swimlaneHead=0;swimlaneBody=0;fillColor=#ffe6cc;collapsible=0;dropTarget=0;points=[[0,0.5],[1,0.5]];portConstraint=eastwest;top=0;left=0;right=0;bottom=0;strokeWidth=2;rounded=0;strokeColor=#d79b00;swimlaneLine=1;" vertex="1" parent="nJMHSFHrPQ5Lqql-Y0jn-27">
          <mxGeometry y="180" width="180" height="30" as="geometry" />
        </mxCell>
        <mxCell id="nJMHSFHrPQ5Lqql-Y0jn-44" value="FK" style="shape=partialRectangle;connectable=0;top=0;left=0;bottom=0;right=0;editable=1;overflow=hidden;strokeWidth=2;rounded=0;swimlaneLine=1;fillColor=#008a00;fontColor=#ffffff;strokeColor=#005700;" vertex="1" parent="nJMHSFHrPQ5Lqql-Y0jn-43">
          <mxGeometry width="30" height="30" as="geometry">
            <mxRectangle width="30" height="30" as="alternateBounds" />
          </mxGeometry>
        </mxCell>
        <mxCell id="nJMHSFHrPQ5Lqql-Y0jn-45" value="IdVaga" style="shape=partialRectangle;connectable=0;fillColor=#ffe6cc;top=0;left=0;bottom=0;right=0;align=left;spacingLeft=6;overflow=hidden;strokeWidth=2;rounded=0;strokeColor=#d79b00;swimlaneLine=1;" vertex="1" parent="nJMHSFHrPQ5Lqql-Y0jn-43">
          <mxGeometry x="30" width="150" height="30" as="geometry">
            <mxRectangle width="150" height="30" as="alternateBounds" />
          </mxGeometry>
        </mxCell>
        <mxCell id="nJMHSFHrPQ5Lqql-Y0jn-46" style="edgeStyle=orthogonalEdgeStyle;rounded=0;orthogonalLoop=1;jettySize=auto;html=1;entryX=1;entryY=0.5;entryDx=0;entryDy=0;endArrow=ERmany;endFill=0;startArrow=ERone;startFill=0;strokeWidth=2;fillColor=#ffe6cc;strokeColor=#000000;swimlaneLine=1;" edge="1" parent="1" source="nJMHSFHrPQ5Lqql-Y0jn-2" target="nJMHSFHrPQ5Lqql-Y0jn-43">
          <mxGeometry relative="1" as="geometry" />
        </mxCell>
        <mxCell id="nJMHSFHrPQ5Lqql-Y0jn-47" style="edgeStyle=orthogonalEdgeStyle;rounded=0;orthogonalLoop=1;jettySize=auto;html=1;entryX=0;entryY=0.75;entryDx=0;entryDy=0;startArrow=ERone;startFill=0;endArrow=ERmany;endFill=0;strokeWidth=2;fillColor=#ffe6cc;strokeColor=#000000;swimlaneLine=1;" edge="1" parent="1" source="nJMHSFHrPQ5Lqql-Y0jn-15" target="nJMHSFHrPQ5Lqql-Y0jn-27">
          <mxGeometry relative="1" as="geometry">
            <Array as="points">
              <mxPoint x="283" y="375" />
              <mxPoint x="283" y="478" />
            </Array>
          </mxGeometry>
        </mxCell>
      </root>
    </mxGraphModel>
  </diagram>
</mxfile>
